<?xml version="1.0" encoding="UTF-8"?>
<svg id="Layer_1" data-name="Layer 1" xmlns="http://www.w3.org/2000/svg" viewBox="0 0 100 70">
  <defs>
    <style>
      .cls-1 {
        fill: #010101;
      }
    </style>
  </defs>
  <path class="cls-1" d="m33.47,0v11.94h3.12V0h-3.12Zm-13.81,3.41l-2.66,1.66,6.31,10.13,2.66-1.66-6.31-10.12Zm30.94.31l-4.72,8.53c-2.99.66-5.78,1.86-8.25,3.5-.85-.12-1.72-.19-2.59-.19-10.67,0-19.31,8.69-19.31,19.41,0,1.95.31,3.83.84,5.59-.98,1.24-1.77,2.64-2.31,4.16l-.69-1.06-10.06,6.34.34.56c-2.38,2.33-3.84,5.56-3.84,9.13s1.63,6.44,4.09,8.09c2.46,1.65,5.54,2.22,8.72,2.22h66.94c11.15,0,20.25-9.1,20.25-20.25s-9.1-20.22-20.25-20.22c-1.61,0-3.12.26-4.59.62-2.87-10.61-12.41-18.5-23.91-18.5-.5,0-.98.03-1.47.06l3.56-6.47s-2.75-1.53-2.75-1.53ZM6.06,15.09l-1.53,2.75,10.41,5.78,1.5-2.75-10.38-5.78h0Zm45.19,1.34c10.09,0,18.32,7.38,19.84,17.03l.47,2.91,2.75-1.03c1.73-.66,3.54-1.06,5.44-1.06,8.58,0,15.5,6.89,15.5,15.47s-6.92,15.5-15.5,15.5H12.81c-2.58,0-4.76-.53-6.06-1.41s-2-1.92-2-4.16c0-4.46,3.59-8.03,8.06-8.03.74,0,1.49.13,2.31.38l3.06.94v-3.22c0-.29,0-.46,0-.5.13-5.3,4.41-9.5,9.75-9.5-.08,0,.12.03.66.06l2.66.19-.12-2.66c-.03-.65-.06-.87-.06-.72,0-11.18,9-20.19,20.19-20.19ZM0,32.5v3.12h11.91v-3.12H0Z"/>
</svg>